<svg width="37" height="53" viewBox="0 0 37 53" fill="none" xmlns="http://www.w3.org/2000/svg">
<g id="ph:shopping-cart-simple-fill">
<path id="Vector" d="M31.3444 40.5385C31.3444 41.0253 31.1973 41.5012 30.9218 41.906C30.6463 42.3108 30.2546 42.6263 29.7964 42.8126C29.3383 42.9989 28.8341 43.0477 28.3476 42.9527C27.8612 42.8577 27.4144 42.6233 27.0637 42.279C26.7131 41.9348 26.4742 41.4962 26.3775 41.0187C26.2807 40.5412 26.3304 40.0463 26.5202 39.5965C26.71 39.1467 27.0314 38.7622 27.4437 38.4918C27.8561 38.2213 28.3409 38.0769 28.8368 38.0769C29.5019 38.0769 30.1397 38.3363 30.61 38.7979C31.0802 39.2595 31.3444 39.8856 31.3444 40.5385ZM12.5378 38.0769C12.0418 38.0769 11.557 38.2213 11.1446 38.4918C10.7323 38.7622 10.4109 39.1467 10.2211 39.5965C10.0313 40.0463 9.98164 40.5412 10.0784 41.0187C10.1751 41.4962 10.414 41.9348 10.7647 42.279C11.1153 42.6233 11.5621 42.8577 12.0486 42.9527C12.535 43.0477 13.0392 42.9989 13.4974 42.8126C13.9556 42.6263 14.3472 42.3108 14.6227 41.906C14.8982 41.5012 15.0453 41.0253 15.0453 40.5385C15.0453 39.8856 14.7811 39.2595 14.3109 38.7979C13.8406 38.3363 13.2028 38.0769 12.5378 38.0769ZM35.7483 17.6462C35.6307 17.4942 35.4791 17.3707 35.3052 17.2854C35.1313 17.2 34.9397 17.155 34.7453 17.1538H7.56967L6.30022 12.7846C6.14801 12.2713 5.83069 11.8201 5.39568 11.4985C4.96067 11.1768 4.43131 11.0019 3.88671 11H1.25378C0.921254 11 0.602351 11.1297 0.367222 11.3605C0.132094 11.5913 0 11.9043 0 12.2308C0 12.5572 0.132094 12.8702 0.367222 13.1011C0.602351 13.3319 0.921254 13.4615 1.25378 13.4615H3.88671L5.42258 18.7077V18.7385L9.56004 32.9385C9.78724 33.7091 10.2629 34.3866 10.9157 34.8692C11.5685 35.3519 12.3631 35.6137 13.1803 35.6154H28.1943C29.0115 35.6137 29.8062 35.3519 30.4589 34.8692C31.1117 34.3866 31.5874 33.7091 31.8146 32.9385L35.952 18.7231C36.0051 18.5403 36.0143 18.348 35.9789 18.1611C35.9436 17.9743 35.8646 17.798 35.7483 17.6462Z" fill="#F6EFE1"/>
<rect width="37" height="53" stroke="#F6EFE1"/>
</g>
</svg>
