<svg width="67" height="55" viewBox="0 0 67 55" fill="none" xmlns="http://www.w3.org/2000/svg">
<g id="cart">
<path id="cart_2" d="M46.8444 41.5385C46.8444 42.0253 46.6973 42.5012 46.4218 42.906C46.1463 43.3108 45.7546 43.6263 45.2964 43.8126C44.8383 43.9989 44.3341 44.0477 43.8476 43.9527C43.3612 43.8577 42.9144 43.6233 42.5637 43.279C42.2131 42.9348 41.9742 42.4962 41.8775 42.0187C41.7807 41.5412 41.8304 41.0463 42.0202 40.5965C42.21 40.1467 42.5314 39.7622 42.9437 39.4918C43.3561 39.2213 43.8409 39.0769 44.3368 39.0769C45.0019 39.0769 45.6397 39.3363 46.11 39.7979C46.5802 40.2595 46.8444 40.8856 46.8444 41.5385ZM28.0378 39.0769C27.5418 39.0769 27.057 39.2213 26.6446 39.4918C26.2323 39.7622 25.9109 40.1467 25.7211 40.5965C25.5313 41.0463 25.4816 41.5412 25.5784 42.0187C25.6751 42.4962 25.914 42.9348 26.2647 43.279C26.6153 43.6233 27.0621 43.8577 27.5486 43.9527C28.035 44.0477 28.5392 43.9989 28.9974 43.8126C29.4556 43.6263 29.8472 43.3108 30.1227 42.906C30.3982 42.5012 30.5453 42.0253 30.5453 41.5385C30.5453 40.8856 30.2811 40.2595 29.8109 39.7979C29.3406 39.3363 28.7028 39.0769 28.0378 39.0769ZM51.2483 18.6462C51.1307 18.4942 50.9791 18.3707 50.8052 18.2854C50.6313 18.2 50.4397 18.155 50.2453 18.1538H23.0697L21.8002 13.7846C21.648 13.2713 21.3307 12.8201 20.8957 12.4985C20.4607 12.1768 19.9313 12.0019 19.3867 12H16.7538C16.4213 12 16.1024 12.1297 15.8672 12.3605C15.6321 12.5913 15.5 12.9043 15.5 13.2308C15.5 13.5572 15.6321 13.8702 15.8672 14.1011C16.1024 14.3319 16.4213 14.4615 16.7538 14.4615H19.3867L20.9226 19.7077V19.7385L25.06 33.9385C25.2872 34.7091 25.7629 35.3866 26.4157 35.8692C27.0685 36.3519 27.8631 36.6137 28.6803 36.6154H43.6943C44.5115 36.6137 45.3062 36.3519 45.9589 35.8692C46.6117 35.3866 47.0874 34.7091 47.3146 33.9385L51.452 19.7231C51.5051 19.5403 51.5143 19.348 51.4789 19.1611C51.4436 18.9743 51.3646 18.798 51.2483 18.6462Z" fill="#17110D"/>
<path d="M67 0H68V-1H67V0ZM67 55V56H68V55H67ZM0 1H67V-1H0V1ZM66 0V55H68V0H66ZM67 54H0V56H67V54Z" fill="#17110D" mask="url(#path-1-inside-1_1141_1051)"/>
</g>
</svg>
