<svg width="20" height="21" viewBox="0 0 20 21" fill="none" xmlns="http://www.w3.org/2000/svg">
<g id="mdi:currency-hryvnia">
<path id="Vector" d="M12.1583 9.66667H15V8H13.6C13.95 7.45 14.1667 6.9 14.1667 6.33333C14.1667 4.14167 12.0833 3 10 3C8.04167 3 6.275 4.71667 6.075 4.90833L7.25833 6.09167C7.65833 5.69167 8.925 4.66667 10 4.66667C10.8667 4.66667 12.5 5.01667 12.5 6.33333C12.5 6.75 12.0833 7.36667 11.4667 8H5V9.66667H9.69167C9.34167 9.96667 8.125 11.0583 7.84167 11.3333H5V13H6.4C6.05 13.55 5.83333 14.1 5.83333 14.6667C5.83333 16.8583 7.91667 18 10 18C11.9583 18 13.725 16.2833 13.925 16.0917L12.7417 14.9083C12.35 15.3083 11.075 16.3333 10 16.3333C9.13333 16.3333 7.5 15.9833 7.5 14.6667C7.5 14.25 7.91667 13.6333 8.53333 13H15V11.3333H10.3167L12.1583 9.66667Z" fill="#17110D"/>
</g>
</svg>
