<svg width="35" height="35" viewBox="0 0 35 35" fill="none" xmlns="http://www.w3.org/2000/svg">
<g id="carbon:logo-instagram">
<path id="Vector" d="M24.5066 12.068C25.3765 12.068 26.0816 11.3628 26.0816 10.493C26.0816 9.62312 25.3765 8.91797 24.5066 8.91797C23.6368 8.91797 22.9316 9.62312 22.9316 10.493C22.9316 11.3628 23.6368 12.068 24.5066 12.068Z" fill="#F6EFE1"/>
<path id="Vector_2" d="M17.2397 10.5C15.9067 10.5 14.6037 10.8953 13.4953 11.6358C12.387 12.3764 11.5231 13.429 11.013 14.6605C10.5029 15.892 10.3695 17.2472 10.6295 18.5545C10.8896 19.8619 11.5314 21.0628 12.474 22.0054C13.4166 22.9479 14.6175 23.5898 15.9248 23.8499C17.2322 24.1099 18.5873 23.9765 19.8189 23.4663C21.0504 22.9562 22.103 22.0924 22.8435 20.9841C23.5841 19.8757 23.9794 18.5727 23.9794 17.2397C23.9794 15.4522 23.2693 13.7379 22.0054 12.474C20.7414 11.2101 19.0272 10.5 17.2397 10.5ZM17.2397 21.6147C16.3744 21.6147 15.5285 21.3581 14.8091 20.8774C14.0896 20.3966 13.5289 19.7134 13.1977 18.9139C12.8666 18.1145 12.7799 17.2348 12.9488 16.3862C13.1176 15.5375 13.5342 14.7579 14.1461 14.1461C14.758 13.5342 15.5375 13.1176 16.3862 12.9488C17.2348 12.7799 18.1145 12.8666 18.9139 13.1977C19.7134 13.5288 20.3966 14.0896 20.8774 14.8091C21.3581 15.5285 21.6147 16.3744 21.6147 17.2397C21.6147 18.4 21.1538 19.5128 20.3333 20.3333C19.5128 21.1538 18.4 21.6147 17.2397 21.6147Z" fill="#F6EFE1"/>
<path id="Vector_3" d="M17.5 6.73969C21.0044 6.73969 21.42 6.75281 22.8036 6.81625C23.6358 6.82613 24.46 6.97893 25.2405 7.26797C25.8067 7.48638 26.3209 7.82091 26.75 8.25002C27.1791 8.67914 27.5136 9.19334 27.732 9.75953C28.0211 10.54 28.1739 11.3642 28.1838 12.1964C28.2472 13.58 28.2603 13.9956 28.2603 17.5011C28.2603 21.0066 28.2472 21.42 28.1838 22.8036C28.1739 23.6358 28.0211 24.46 27.732 25.2405C27.5136 25.8067 27.1791 26.3209 26.75 26.75C26.3209 27.1791 25.8067 27.5136 25.2405 27.732C24.46 28.0211 23.6358 28.1739 22.8036 28.1838C21.42 28.2472 21.0044 28.2603 17.5 28.2603C13.9956 28.2603 13.58 28.2472 12.1964 28.1838C11.3642 28.1739 10.54 28.0211 9.75953 27.732C9.19334 27.5136 8.67914 27.1791 8.25002 26.75C7.82091 26.3209 7.48638 25.8067 7.26797 25.2405C6.97893 24.46 6.82613 23.6358 6.81625 22.8036C6.75281 21.42 6.73969 21.0044 6.73969 17.5C6.73969 13.9956 6.75281 13.58 6.81625 12.1964C6.82613 11.3642 6.97893 10.54 7.26797 9.75953C7.48638 9.19334 7.82091 8.67914 8.25002 8.25002C8.67914 7.82091 9.19334 7.48638 9.75953 7.26797C10.54 6.97893 11.3642 6.82613 12.1964 6.81625C13.58 6.75281 13.9956 6.73969 17.5 6.73969ZM17.5 4.375C13.9355 4.375 13.4881 4.39031 12.0881 4.45375C10.9996 4.47573 9.92267 4.68209 8.90313 5.06406C8.0311 5.40126 7.23916 5.91694 6.57805 6.57805C5.91694 7.23916 5.40126 8.0311 5.06406 8.90313C4.68197 9.92302 4.47561 11.0003 4.45375 12.0892C4.39031 13.4892 4.375 13.9344 4.375 17.5C4.375 21.0656 4.39031 21.5119 4.45375 22.9119C4.47573 24.0004 4.68209 25.0773 5.06406 26.0969C5.40126 26.9689 5.91694 27.7608 6.57805 28.4219C7.23916 29.0831 8.0311 29.5987 8.90313 29.9359C9.92302 30.318 11.0003 30.5244 12.0892 30.5462C13.4892 30.6097 13.9355 30.625 17.5 30.625C21.0645 30.625 21.5119 30.6097 22.9119 30.5462C24.0008 30.5244 25.0781 30.318 26.098 29.9359C26.97 29.5987 27.7619 29.0831 28.423 28.4219C29.0842 27.7608 29.5998 26.9689 29.937 26.0969C30.3188 25.0769 30.5247 23.9996 30.5462 22.9108C30.6097 21.5108 30.625 21.0656 30.625 17.5C30.625 13.9344 30.6097 13.4881 30.5462 12.0881C30.5243 10.9996 30.3179 9.92267 29.9359 8.90313C29.5987 8.0311 29.0831 7.23916 28.4219 6.57805C27.7608 5.91694 26.9689 5.40126 26.0969 5.06406C25.0769 4.68234 23.9996 4.47635 22.9108 4.45484C21.5108 4.38922 21.0656 4.375 17.5 4.375Z" fill="#F6EFE1"/>
</g>
</svg>
